<svg width="36" height="32" viewBox="0 0 36 32" fill="none" xmlns="http://www.w3.org/2000/svg">
<path d="M18 30.4375C18 30.4375 1.59375 21.25 1.59375 10.0937C1.59375 8.12153 2.27706 6.21023 3.52742 4.68503C4.77779 3.15983 6.51797 2.11495 8.45188 1.72817C10.3858 1.34139 12.394 1.63659 14.1348 2.56356C15.8756 3.49052 17.2415 4.99199 18 6.8125C18.7585 4.99199 20.1244 3.49052 21.8652 2.56356C23.606 1.63659 25.6142 1.34139 27.5481 1.72817C29.482 2.11495 31.2222 3.15983 32.4726 4.68503C33.7229 6.21023 34.4062 8.12153 34.4062 10.0937C34.4062 21.25 18 30.4375 18 30.4375Z" fill="#E5A8DC" stroke="#69306D" stroke-width="2" stroke-linecap="round" stroke-linejoin="round"/>
</svg>
