<svg width="217" height="27" viewBox="0 0 217 27" fill="none" xmlns="http://www.w3.org/2000/svg">
<path d="M155.02 9.98438C155.02 10.6289 154.889 11.1888 154.629 11.6641C154.368 12.1393 154.01 12.5299 153.555 12.8359C153.105 13.1354 152.585 13.3503 151.992 13.4805V13.5488C153.132 13.6921 153.991 14.0501 154.57 14.623C155.156 15.196 155.449 15.9544 155.449 16.8984C155.449 17.7253 155.251 18.4642 154.854 19.1152C154.456 19.7598 153.848 20.2676 153.027 20.6387C152.207 21.0098 151.152 21.1953 149.863 21.1953C149.089 21.1953 148.369 21.1335 147.705 21.0098C147.048 20.8861 146.423 20.6875 145.83 20.4141V18.373C146.436 18.6725 147.08 18.9036 147.764 19.0664C148.447 19.2292 149.095 19.3105 149.707 19.3105C150.898 19.3105 151.748 19.0892 152.256 18.6465C152.764 18.1973 153.018 17.5788 153.018 16.791C153.018 16.2832 152.884 15.8665 152.617 15.541C152.357 15.2155 151.95 14.9714 151.396 14.8086C150.85 14.6458 150.143 14.5645 149.277 14.5645H148.018V12.7188H149.287C150.114 12.7188 150.778 12.6211 151.279 12.4258C151.781 12.224 152.142 11.9473 152.363 11.5957C152.591 11.2441 152.705 10.834 152.705 10.3652C152.705 9.75326 152.507 9.27799 152.109 8.93945C151.712 8.5944 151.123 8.42188 150.342 8.42188C149.86 8.42188 149.421 8.47721 149.023 8.58789C148.633 8.69857 148.271 8.83854 147.939 9.00781C147.607 9.17708 147.292 9.35938 146.992 9.55469L145.889 7.96289C146.429 7.55924 147.074 7.21745 147.822 6.9375C148.571 6.65755 149.443 6.51758 150.439 6.51758C151.904 6.51758 153.034 6.83333 153.828 7.46484C154.622 8.08984 155.02 8.92969 155.02 9.98438ZM160.8 18.6758L160.937 18.9004C160.82 19.3691 160.67 19.8737 160.488 20.4141C160.306 20.9544 160.107 21.4948 159.892 22.0352C159.677 22.582 159.459 23.0964 159.238 23.5781H157.558C157.695 23.0508 157.825 22.4974 157.949 21.918C158.079 21.3451 158.196 20.7786 158.3 20.2188C158.411 19.6523 158.499 19.138 158.564 18.6758H160.8ZM172.714 9.98438C172.714 10.6289 172.584 11.1888 172.323 11.6641C172.063 12.1393 171.705 12.5299 171.249 12.8359C170.8 13.1354 170.279 13.3503 169.687 13.4805V13.5488C170.826 13.6921 171.685 14.0501 172.265 14.623C172.851 15.196 173.144 15.9544 173.144 16.8984C173.144 17.7253 172.945 18.4642 172.548 19.1152C172.151 19.7598 171.542 20.2676 170.722 20.6387C169.902 21.0098 168.847 21.1953 167.558 21.1953C166.783 21.1953 166.064 21.1335 165.4 21.0098C164.742 20.8861 164.117 20.6875 163.525 20.4141V18.373C164.13 18.6725 164.775 18.9036 165.458 19.0664C166.142 19.2292 166.79 19.3105 167.402 19.3105C168.593 19.3105 169.443 19.0892 169.95 18.6465C170.458 18.1973 170.712 17.5788 170.712 16.791C170.712 16.2832 170.579 15.8665 170.312 15.541C170.051 15.2155 169.644 14.9714 169.091 14.8086C168.544 14.6458 167.838 14.5645 166.972 14.5645H165.712V12.7188H166.982C167.808 12.7188 168.473 12.6211 168.974 12.4258C169.475 12.224 169.836 11.9473 170.058 11.5957C170.286 11.2441 170.4 10.834 170.4 10.3652C170.4 9.75326 170.201 9.27799 169.804 8.93945C169.407 8.5944 168.818 8.42188 168.036 8.42188C167.555 8.42188 167.115 8.47721 166.718 8.58789C166.327 8.69857 165.966 8.83854 165.634 9.00781C165.302 9.17708 164.986 9.35938 164.687 9.55469L163.583 7.96289C164.124 7.55924 164.768 7.21745 165.517 6.9375C166.265 6.65755 167.138 6.51758 168.134 6.51758C169.599 6.51758 170.728 6.83333 171.523 7.46484C172.317 8.08984 172.714 8.92969 172.714 9.98438ZM185.624 17.8652H183.69V21H181.425V17.8652H174.93V16.127L181.454 6.68359H183.69V15.9609H185.624V17.8652ZM181.425 15.9609V12.416C181.425 12.123 181.428 11.8268 181.434 11.5273C181.447 11.2214 181.46 10.9284 181.473 10.6484C181.486 10.3685 181.499 10.1113 181.513 9.87695C181.526 9.63607 181.535 9.4375 181.542 9.28125H181.464C181.34 9.54167 181.203 9.80859 181.054 10.082C180.904 10.349 180.744 10.6094 180.575 10.8633L177.059 15.9609H181.425ZM192.137 12.0742C193.055 12.0742 193.862 12.2402 194.559 12.5723C195.262 12.8978 195.809 13.3796 196.2 14.0176C196.59 14.6491 196.786 15.4238 196.786 16.3418C196.786 17.3444 196.574 18.2103 196.151 18.9395C195.728 19.6621 195.106 20.2188 194.286 20.6094C193.465 21 192.466 21.1953 191.287 21.1953C190.539 21.1953 189.839 21.1302 189.188 21C188.543 20.8698 187.987 20.6745 187.518 20.4141V18.3438C188.006 18.6172 188.592 18.8418 189.276 19.0176C189.959 19.1868 190.614 19.2715 191.239 19.2715C191.903 19.2715 192.472 19.1738 192.948 18.9785C193.423 18.7832 193.787 18.4837 194.041 18.0801C194.302 17.6764 194.432 17.1654 194.432 16.5469C194.432 15.7266 194.168 15.0951 193.641 14.6523C193.12 14.2031 192.303 13.9785 191.19 13.9785C190.799 13.9785 190.383 14.0143 189.94 14.0859C189.504 14.151 189.139 14.2227 188.846 14.3008L187.84 13.7051L188.377 6.72266H195.799V8.74414H190.399L190.086 12.2988C190.321 12.2467 190.601 12.1979 190.926 12.1523C191.252 12.1003 191.655 12.0742 192.137 12.0742Z" fill="black" fill-opacity="0.85"/>
<g clip-path="url(#clip0_19_9)">
<path fill-rule="evenodd" clip-rule="evenodd" d="M11.6663 2.43407L14.4897 8.42859C14.5935 8.65503 14.8034 8.81479 15.0493 8.85455L21.3627 9.81582C21.6482 9.87117 21.88 10.079 21.9661 10.3567C22.0522 10.6344 21.9786 10.9369 21.7746 11.144L17.2061 15.8101C17.0297 15.993 16.9505 16.2487 16.9924 16.4993L18.0709 23.088C18.1297 23.3712 18.0206 23.663 17.7905 23.8383C17.5603 24.0135 17.25 24.0409 16.9926 23.9088L11.3457 20.7981C11.1305 20.6788 10.8692 20.6788 10.654 20.7981L5.00708 23.9088C4.74973 24.0409 4.43938 24.0135 4.20921 23.8383C3.97905 23.663 3.86998 23.3712 3.92881 23.088L5.00728 16.4993C5.04924 16.2487 4.96996 15.993 4.79355 15.8101L0.225081 11.144C0.021062 10.9369 -0.05252 10.6344 0.0335878 10.3567C0.119696 10.079 0.351539 9.87119 0.636948 9.81584L6.95042 8.85456C7.19631 8.8148 7.40618 8.65503 7.50996 8.42859L10.3334 2.43407C10.4501 2.17021 10.7114 2 10.9998 2C11.2883 2 11.5496 2.17021 11.6663 2.43407Z" fill="#F6AB27"/>
<path fill-rule="evenodd" clip-rule="evenodd" d="M6.50466 16.7444C6.6241 16.0171 6.39124 15.2762 5.87717 14.748L2.30261 11.097L7.1792 10.3547C7.92444 10.239 8.56311 9.75975 8.88239 9.07651L11.0001 4.58017L13.117 9.07522C13.4363 9.75901 14.0752 10.2388 14.8209 10.3546L19.6975 11.0969L16.1222 14.7487C15.6085 15.2772 15.3759 16.0181 15.4955 16.7453L16.3241 21.8082L12.078 19.4692C11.4073 19.0989 10.5934 19.0988 9.92253 19.4688L5.67603 21.8082L6.50466 16.7444Z" fill="#F4CD1E"/>
</g>
<g clip-path="url(#clip1_19_9)">
<path fill-rule="evenodd" clip-rule="evenodd" d="M65.6663 2.43423L68.4897 8.43101C68.5935 8.65753 68.8034 8.81736 69.0493 8.85713L75.3627 9.81876C75.6482 9.87413 75.88 10.082 75.9661 10.3598C76.0522 10.6376 75.9786 10.9403 75.7746 11.1475L71.2061 15.8153C71.0297 15.9983 70.9505 16.2541 70.9924 16.5048L72.0709 23.0959C72.1297 23.3792 72.0206 23.6712 71.7905 23.8465C71.5603 24.0218 71.25 24.0492 70.9926 23.9171L65.3457 20.8052C65.1305 20.6859 64.8692 20.6859 64.654 20.8052L59.0071 23.9171C58.7497 24.0492 58.4394 24.0218 58.2092 23.8465C57.979 23.6712 57.87 23.3792 57.9288 23.0959L59.0073 16.5048C59.0492 16.2541 58.97 15.9983 58.7936 15.8153L54.2251 11.1475C54.0211 10.9403 53.9475 10.6376 54.0336 10.3598C54.1197 10.0821 54.3515 9.87415 54.6369 9.81878L60.9504 8.85714C61.1963 8.81736 61.4062 8.65753 61.51 8.43101L64.3334 2.43423C64.4501 2.17027 64.7114 2 64.9998 2C65.2883 2 65.5496 2.17027 65.6663 2.43423Z" fill="#F6AB27"/>
<path fill-rule="evenodd" clip-rule="evenodd" d="M60.5047 16.7499C60.6241 16.0223 60.3912 15.2812 59.8772 14.7528L56.3026 11.1004L61.1792 10.3578C61.9244 10.2421 62.5631 9.76266 62.8824 9.07917L65.0001 4.58113L67.117 9.07787C67.4363 9.76193 68.0752 10.2419 68.8209 10.3578L73.6975 11.1004L70.1222 14.7535C69.6085 15.2822 69.3759 16.0233 69.4955 16.7509L70.3241 21.8157L66.078 19.4758C65.4073 19.1053 64.5934 19.1052 63.9225 19.4754L59.676 21.8157L60.5047 16.7499Z" fill="#F4CD1E"/>
</g>
<g clip-path="url(#clip2_19_9)">
<path fill-rule="evenodd" clip-rule="evenodd" d="M38.6663 2.43423L41.4897 8.43101C41.5935 8.65753 41.8034 8.81736 42.0493 8.85713L48.3627 9.81876C48.6482 9.87413 48.88 10.082 48.9661 10.3598C49.0522 10.6376 48.9786 10.9403 48.7746 11.1475L44.2061 15.8153C44.0297 15.9983 43.9505 16.2541 43.9924 16.5048L45.0709 23.0959C45.1297 23.3792 45.0206 23.6712 44.7905 23.8465C44.5603 24.0218 44.25 24.0492 43.9926 23.9171L38.3457 20.8052C38.1305 20.6859 37.8692 20.6859 37.654 20.8052L32.0071 23.9171C31.7497 24.0492 31.4394 24.0218 31.2092 23.8465C30.979 23.6712 30.87 23.3792 30.9288 23.0959L32.0073 16.5048C32.0492 16.2541 31.97 15.9983 31.7936 15.8153L27.2251 11.1475C27.0211 10.9403 26.9475 10.6376 27.0336 10.3598C27.1197 10.0821 27.3515 9.87415 27.6369 9.81878L33.9504 8.85714C34.1963 8.81736 34.4062 8.65753 34.51 8.43101L37.3334 2.43423C37.4501 2.17027 37.7114 2 37.9998 2C38.2883 2 38.5496 2.17027 38.6663 2.43423Z" fill="#F6AB27"/>
<path fill-rule="evenodd" clip-rule="evenodd" d="M33.5047 16.7499C33.6241 16.0223 33.3912 15.2812 32.8772 14.7528L29.3026 11.1004L34.1792 10.3578C34.9244 10.2421 35.5631 9.76266 35.8824 9.07917L38.0001 4.58113L40.117 9.07787C40.4363 9.76193 41.0752 10.2419 41.8209 10.3578L46.6975 11.1004L43.1222 14.7535C42.6085 15.2822 42.3759 16.0233 42.4955 16.7509L43.3241 21.8157L39.078 19.4758C38.4073 19.1053 37.5934 19.1052 36.9225 19.4754L32.676 21.8157L33.5047 16.7499Z" fill="#F4CD1E"/>
</g>
<g clip-path="url(#clip3_19_9)">
<path fill-rule="evenodd" clip-rule="evenodd" d="M91.6663 2.43423L94.4897 8.43101C94.5935 8.65753 94.8034 8.81736 95.0493 8.85713L101.363 9.81876C101.648 9.87413 101.88 10.082 101.966 10.3598C102.052 10.6376 101.979 10.9403 101.775 11.1475L97.2061 15.8153C97.0297 15.9983 96.9505 16.2541 96.9924 16.5048L98.0709 23.0959C98.1297 23.3792 98.0206 23.6712 97.7905 23.8465C97.5603 24.0218 97.25 24.0492 96.9926 23.9171L91.3457 20.8052C91.1305 20.6859 90.8692 20.6859 90.654 20.8052L85.0071 23.9171C84.7497 24.0492 84.4394 24.0218 84.2092 23.8465C83.979 23.6712 83.87 23.3792 83.9288 23.0959L85.0073 16.5048C85.0492 16.2541 84.97 15.9983 84.7936 15.8153L80.2251 11.1475C80.0211 10.9403 79.9475 10.6376 80.0336 10.3598C80.1197 10.0821 80.3515 9.87415 80.6369 9.81878L86.9504 8.85714C87.1963 8.81736 87.4062 8.65753 87.51 8.43101L90.3334 2.43423C90.4501 2.17027 90.7114 2 90.9998 2C91.2883 2 91.5496 2.17027 91.6663 2.43423Z" fill="#F6AB27"/>
<path fill-rule="evenodd" clip-rule="evenodd" d="M86.5047 16.7499C86.6241 16.0223 86.3912 15.2812 85.8772 14.7528L82.3026 11.1004L87.1792 10.3578C87.9244 10.2421 88.5631 9.76266 88.8824 9.07917L91.0001 4.58113L93.117 9.07787C93.4363 9.76193 94.0752 10.2419 94.8209 10.3578L99.6975 11.1004L96.1222 14.7535C95.6085 15.2822 95.3759 16.0233 95.4955 16.7509L96.3241 21.8157L92.078 19.4758C91.4073 19.1053 90.5934 19.1052 89.9225 19.4754L85.676 21.8157L86.5047 16.7499Z" fill="#F4CD1E"/>
</g>
<g clip-path="url(#clip4_19_9)">
<path fill-rule="evenodd" clip-rule="evenodd" d="M118.666 2.43423L121.49 8.43101C121.594 8.65753 121.803 8.81736 122.049 8.85713L128.363 9.81876C128.648 9.87413 128.88 10.082 128.966 10.3598C129.052 10.6376 128.979 10.9403 128.775 11.1475L124.206 15.8153C124.03 15.9983 123.95 16.2541 123.992 16.5048L125.071 23.0959C125.13 23.3792 125.021 23.6712 124.79 23.8465C124.56 24.0218 124.25 24.0492 123.993 23.9171L118.346 20.8052C118.131 20.6859 117.869 20.6859 117.654 20.8052L112.007 23.9171C111.75 24.0492 111.439 24.0218 111.209 23.8465C110.979 23.6712 110.87 23.3792 110.929 23.0959L112.007 16.5048C112.049 16.2541 111.97 15.9983 111.794 15.8153L107.225 11.1475C107.021 10.9403 106.947 10.6376 107.034 10.3598C107.12 10.0821 107.352 9.87415 107.637 9.81878L113.95 8.85714C114.196 8.81736 114.406 8.65753 114.51 8.43101L117.333 2.43423C117.45 2.17027 117.711 2 118 2C118.288 2 118.55 2.17027 118.666 2.43423Z" fill="black" fill-opacity="0.49"/>
<path fill-rule="evenodd" clip-rule="evenodd" d="M113.505 16.7499C113.624 16.0223 113.391 15.2812 112.877 14.7528L109.303 11.1004L114.179 10.3578C114.924 10.2421 115.563 9.76266 115.882 9.07917L118 4.58113L120.117 9.07787C120.436 9.76193 121.075 10.2419 121.821 10.3578L126.698 11.1004L123.122 14.7535C122.608 15.2822 122.376 16.0233 122.496 16.7509L123.324 21.8157L119.078 19.4758C118.407 19.1053 117.593 19.1052 116.923 19.4754L112.676 21.8157L113.505 16.7499Z" fill="#F5F5F5"/>
</g>
<defs>
<clipPath id="clip0_19_9">
<rect width="22" height="22" fill="white" transform="translate(0 2)"/>
</clipPath>
<clipPath id="clip1_19_9">
<rect width="22" height="22" fill="white" transform="translate(54 2)"/>
</clipPath>
<clipPath id="clip2_19_9">
<rect width="22" height="22" fill="white" transform="translate(27 2)"/>
</clipPath>
<clipPath id="clip3_19_9">
<rect width="22" height="22" fill="white" transform="translate(80 2)"/>
</clipPath>
<clipPath id="clip4_19_9">
<rect width="22" height="22" fill="white" transform="translate(107 2)"/>
</clipPath>
</defs>
</svg>
